<svg xmlns="http://www.w3.org/2000/svg" viewBox="0 0 802.73 848.03"><defs><style>.cls-1{fill:#f7f7f7;}.cls-2{font-size:100px;}.cls-2,.cls-3,.cls-4{fill:#272727;}.cls-2,.cls-4{font-family:SnellRoundhand-Bold, Snell Roundhand;font-weight:700;}.cls-3,.cls-4{font-size:120px;}.cls-3{font-family:BwVivant-Medium, Bw Vivant;font-weight:500;}</style></defs><title>university-logo-simple</title><g id="Layer_2" data-name="Layer 2"><g id="Layer_3" data-name="Layer 3"><path class="cls-1" d="M749.77,53A25,25,0,0,0,727,29.05L401.36,0,75.68,29.05A25,25,0,0,0,52.92,53c-1.65,43-5.11,129.85-6,217.7H755.82C754.91,182.82,751.43,95.93,749.77,53Z"/><polygon class="cls-1" points="755.9 279.02 46.82 279.02 0 279.02 0 509.83 60.95 509.83 741.69 509.83 802.73 509.83 802.73 279.02 755.9 279.02"/><path class="cls-1" d="M87.64,573.74c50,74.46,242.55,225.9,298.42,269.07a25,25,0,0,0,30.55,0C472.44,799.66,664.76,648.38,714.75,574c8.33-12.39,17.53-34.58,24.37-55.87H63.5C70.27,539.35,79.37,561.41,87.64,573.74Z"/><text class="cls-2" transform="translate(299.52 656.25)">1869</text><text class="cls-3" transform="translate(33.45 445.65)">CALIFORNIA</text><text class="cls-4" transform="translate(140.13 182.16)">University</text></g></g></svg>